<svg xmlns="http://www.w3.org/2000/svg" enable-background="new 0 0 64 64" viewBox="0 0 64 64" id="EuroCoin">
  <circle cx="32" cy="32" r="28" fill="#53d86a" class="colorffe603 svgShape"></circle>
  <circle cx="32" cy="32" r="22" fill="#fe9526" class="colorfcd206 svgShape"></circle>
  <g fill="#595bd4" class="color000000 svgShape">
    <path d="M32,61C16,61,3,48,3,32S16,3,32,3s29,13,29,29S48,61,32,61z M32,5C17.1,5,5,17.1,5,32s12.1,27,27,27s27-12.1,27-27
			S46.9,5,32,5z" fill="#595bd4" class="color000000 svgShape"></path>
    <path d="M32,55C19.3,55,9,44.7,9,32S19.3,9,32,9s23,10.3,23,23S44.7,55,32,55z M32,11c-11.6,0-21,9.4-21,21s9.4,21,21,21
			s21-9.4,21-21S43.6,11,32,11z" fill="#595bd4" class="color000000 svgShape"></path>
    <path d="M57.2 32c.4 3.3 0 6.7-1.2 9.9-1.2 3.2-3.1 6.1-5.5 8.6-2.4 2.4-5.4 4.3-8.6 5.5-3.2 1.2-6.6 1.6-9.9 1.2 3.3-.4 6.4-1.3 9.3-2.6 2.9-1.4 5.5-3.2 7.8-5.4 2.3-2.2 4.1-4.9 5.4-7.8C55.9 38.4 56.7 35.3 57.2 32zM6.8 32c-.4-3.3 0-6.7 1.2-9.9 1.2-3.2 3.1-6.1 5.5-8.6 2.4-2.4 5.4-4.3 8.6-5.5 3.2-1.2 6.6-1.6 9.9-1.2-3.3.4-6.4 1.3-9.3 2.6-2.9 1.4-5.5 3.2-7.8 5.4-2.3 2.2-4.1 4.9-5.4 7.8C8.1 25.6 7.3 28.7 6.8 32zM32 43.8h-5.4c-.6 0-1-.4-1-1s.4-1 1-1H32c2.4 0 4.4-2 4.4-4.4 0-2.4-2-4.4-4.4-4.4-3.5 0-6.4-2.9-6.4-6.4s2.9-6.4 6.4-6.4h5.4c.6 0 1 .4 1 1s-.4 1-1 1H32c-2.4 0-4.4 2-4.4 4.4 0 2.4 2 4.4 4.4 4.4 3.5 0 6.4 2.9 6.4 6.4S35.5 43.8 32 43.8z" fill="#595bd4" class="color000000 svgShape"></path>
    <path d="M32,46.3c-0.6,0-1-0.4-1-1V18.8c0-0.6,0.4-1,1-1s1,0.4,1,1v26.5C33,45.8,32.6,46.3,32,46.3z" fill="#595bd4" class="color000000 svgShape"></path>
  </g>
</svg>
