<svg xmlns="http://www.w3.org/2000/svg" width="32" height="32" id="food">
  <g stroke-linecap="round" stroke-linejoin="round">
    <path fill="#faa41a" stroke="#383747" d="M16.306 10.685c-2.08 0-3.763 2.42-3.763 5.385.04 2.908-3.507 3.06-3.548 6.919-.045 4.329 2.93 6.943 6.023 6.455.205-.123.934-.078 1.178.053 3.896.12 5.771-3.14 5.771-6.507.09-2.794-2.52-4.405-2.308-7.02.307-3.322-1.274-5.284-3.353-5.284z"></path>
    <path fill="none" stroke="#383747" d="m16.771 12.147-1.764-4.164m2.337.594c-.47-.726-1.208-1.442-.624-2.951.87-2.247 4.222-3.1 6.285-3.127 0 2.13-.842 4.936-2.24 6.082-.82.671-2.36.445-3.421 0zm-1.187 1.838c1.096-1.73 2.358-3.63 4.095-4.942"></path>
    <path fill="none" stroke="#fff" d="M17.02 27.469c1.726-.598 2.563-2.432 2.563-4.315"></path>
  </g>
</svg>
