<svg xmlns="http://www.w3.org/2000/svg" viewBox="0 0 64 64" id="plane">
  <path fill="#e04538" d="m10.2 27.3 8.2 3.3 9.9-5.7-11.1-6c-.4-.2-.7-.5-.9-.9-.6-1.1-.2-2.4.8-3.1l8.7-5c.7-.4 1.6-.5 2.3-.1l13.6 7.3 9.6-5.5c1.9-1.1 4.1-1.5 5.9-1.2 4.5.7 6.9 4.9 5.3 9.1-.7 1.9-2.2 3.6-4 4.6L23 44.5c-.6.4-1.5.4-2.2.1L2.3 35c-.4-.2-.8-.5-1-.9-.7-1.1-.3-2.5.8-3.1l6.2-3.6c.5-.3 1.3-.4 1.9-.1z"></path>
  <path d="m10.6 26.4 7.7 3.1 8-4.6-9.6-5.2c-2.2-1.2-2.2-4.4-.1-5.6l8.7-5c1-.7 2.3-.7 3.3-.2L41.7 16l9.1-5.3c4-2.3 9.7-1.9 12.2 2.4s0 9.5-4 11.8L23.4 45.4c-1 .6-2.1.6-3.1.1L1.9 35.8C.5 35.2-.3 33.6.1 32.1c.2-.8.7-1.5 1.5-2l6.2-3.6h.1c1.2-.7 1.2-.7 2.7-.1zm-.7 1.8c-.4-.2-.8-.2-1.1 0-2.1 1.2-4.1 2.4-6.2 3.6-.9.5-.8 1.8.1 2.3h.1l18.5 9.7c.4.2.9.2 1.2 0L58 23.2c3.1-1.7 5.3-5.7 3.3-9.1-1.9-3.4-6.5-3.5-9.5-1.7l-9.6 5.5-.5.3-.5-.3-13.6-7.3c-.4-.2-.9-.2-1.3.1h-.1l-8.7 5c-1.5.9-.2 2.1.7 2.6l12 6.5-11.8 6.8-8.5-3.4z"></path>
  <path fill="#e6e6e6" d="M62.1 13.5c1 1.7 1.2 3.8.4 5.9-.7 1.9-2.2 3.6-4 4.6L23 44.5c-.6.4-1.5.4-2.2.1l-5.9-3.1 47.2-28z"></path>
  <path d="M63 13c2.6 4.3.1 9.5-4 11.8L23.4 45.4c-1 .6-2.1.6-3.1.1l-5.9-3.1-1.5-.8 1.5-.9 47.2-28 .8-.5.6.8zm-1.3 1.9L16.9 41.5l4.3 2.3c.4.2.9.2 1.2 0L58 23.2c2.8-1.6 4.9-5.1 3.7-8.3z"></path>
  <path fill="#5d5e61" d="M11.5 54.5c-1.2 0-2.2-1-2.2-2.2 0-1.2 1-2.2 2.2-2.2h49.1c1.2 0 2.2 1 2.2 2.2 0 1.2-1 2.2-2.2 2.2H11.5z"></path>
  <path d="M11.5 55.5c-1.8 0-3.2-1.4-3.2-3.2 0-1.8 1.4-3.2 3.2-3.2h49.1c1.8 0 3.2 1.4 3.2 3.2 0 1.8-1.4 3.2-3.2 3.2H11.5zm0-2h49.1c.7 0 1.3-.6 1.3-1.3s-.5-1.2-1.2-1.2H11.6c-.7 0-1.3.6-1.3 1.3 0 .7.5 1.2 1.2 1.2z"></path>
</svg>
