<svg xmlns="http://www.w3.org/2000/svg" xml:space="preserve" id="Planning" x="0" y="0" enable-background="new 0 0 64 64" version="1.1" viewBox="0 0 64 64">
  <path d="M54.43,61.13h-5.47V33.37c0-0.79-0.64-1.43-1.44-1.43h-8.6v-8.7c0-0.8-0.64-1.44-1.43-1.44H27.45
		c-0.79,0-1.43,0.64-1.43,1.44v20.37h-8.61c-0.79,0-1.43,0.64-1.43,1.43v16.09h-4.97V18.36c0-0.79-0.65-1.44-1.44-1.44
		s-1.43,0.65-1.43,1.44v44.21c0,0.79,0.64,1.43,1.43,1.43h44.86c0.79,0,1.43-0.64,1.43-1.43S55.22,61.13,54.43,61.13z M26.02,60.94
		h-7.18V46.47h7.18V60.94z M36.05,60.94h-7.17V24.67h7.17V60.94z M46.09,60.94h-7.17V34.81h7.17V60.94z" fill="#595bd4" class="color000000 svgShape"></path>
  <rect width="7.18" height="14.47" x="18.84" y="46.47" fill="#167ffc" class="color42c3fc svgShape"></rect>
  <rect width="7.17" height="26.13" x="38.92" y="34.81" fill="#fe9526" class="colorffc064 svgShape"></rect>
  <rect width="7.17" height="36.27" x="28.88" y="24.67" fill="#eaa052" class="colorea526c svgShape"></rect>
  <path d="M51.7,0H10.63C9.84,0,9.2,0.64,9.2,1.43v6.06c0,0.8,0.64,1.44,1.43,1.44H51.7c0.79,0,1.43-0.64,1.43-1.44V1.43
		C53.13,0.64,52.49,0,51.7,0z M50.27,6.06h-38.2V2.87h38.2V6.06z" fill="#595bd4" class="color000000 svgShape"></path>
  <rect width="38.2" height="3.19" x="12.07" y="2.87" fill="#53d86a" class="color85d69e svgShape"></rect>
  <path d="M10.63,14.17H51.7c0.79,0,1.43-0.64,1.43-1.43c0-0.79-0.64-1.43-1.43-1.43H10.63c-0.79,0-1.43,0.64-1.43,1.43
		C9.2,13.53,9.84,14.17,10.63,14.17z" fill="#595bd4" class="color000000 svgShape"></path>
</svg>
