<svg xmlns="http://www.w3.org/2000/svg" enable-background="new 0 0 24 24" viewBox="0 0 24 24" id="printer">
  <path id="_icons" d="M2,10.6904v3.6191c0,0.9746,0.3569,1.9219,1.0195,2.6826c0.6689,0.7373,1.5728,1.1992,2.5381,1.3018
		C5.7037,18.3102,5.8523,18.3226,6,18.3373v0.5631c0,1.3516,1.0225,2.5176,2.4302,2.7734C9.6147,21.8906,10.8076,21.999,12,21.999
		c1.1929,0,2.3853-0.1084,3.5688-0.3252C16.9775,21.418,18,20.252,18,18.9004V18.338c0.1509-0.0149,0.3035-0.0276,0.4512-0.044
		C20.4741,18.0674,22,16.3545,22,14.3096v-3.6191c0-0.9746-0.3569-1.9219-1.0195-2.6826c-0.6689-0.7373-1.5728-1.1992-2.5381-1.3018
		C18.2963,6.6898,18.1477,6.6774,18,6.6627V5.4404c0-1.4912-1.0146-2.7783-2.4004-3.0576
		c-2.3672-0.5078-4.8438-0.5049-7.1875-0.0029C7.0146,2.6621,6,3.9492,6,5.4404V6.662c-0.1509,0.0149-0.3035,0.0276-0.4512,0.044
		C3.5259,6.9326,2,8.6455,2,10.6904z M16,18.9004c0,0.3838-0.3315,0.7227-0.7896,0.8066c-2.1299,0.3887-4.29,0.3887-6.4219,0
		C8.3315,19.623,8,19.2842,8,18.9004v-1.4707v-1.79c0-0.4727,0.3398-0.8848,0.8022-0.9785
		c1.6292-0.3192,3.1928-0.3984,4.7838-0.2396c0.5311,0.0536,1.0677,0.1331,1.6054,0.2386C15.6602,14.7549,16,15.167,16,15.6396v1.79
		V18.9004z M8,5.4404c0-0.543,0.3394-1.0059,0.8193-1.1025c2.0928-0.4492,4.2568-0.4521,6.373,0.0029
		C15.6606,4.4346,16,4.8975,16,5.4404v1.0518c-0.3437-0.0227-0.6891-0.0342-1.034-0.0511c-0.204-0.0099-0.4072-0.0224-0.6115-0.0303
		C13.5685,6.3804,12.7824,6.3604,12,6.3604c-0.7827,0-1.5691,0.0201-2.3553,0.0505c-0.2045,0.0079-0.408,0.0203-0.6123,0.0303
		C8.6881,6.458,8.3431,6.4695,8,6.4922V5.4404z M4,10.6904C4,9.665,4.7612,8.8066,5.7725,8.6943
		c0.373-0.043,0.7612-0.0781,1.1382-0.1113L7.084,8.5664c1.6262-0.1367,3.2724-0.2051,4.9169-0.2051
		c0.8221,0,1.6442,0.0171,2.4641,0.0513c0.8188,0.0342,1.6345,0.0854,2.4443,0.1538l0.1064,0.0098
		c0.3984,0.0361,0.8047,0.0723,1.2095,0.1182c0.4839,0.0518,0.9365,0.2852,1.2607,0.6416C19.7202,9.6055,20,10.0596,20,10.6904
		v3.6191c0,1.0254-0.7612,1.8838-1.7725,1.9961c-0.0757,0.0088-0.1514,0.0176-0.2275,0.0254v-0.6914
		c0-1.4209-1.0142-2.6572-2.4175-2.9414c-0.607-0.1188-1.2065-0.2078-1.8025-0.2672c-0.6008-0.0604-1.1956-0.0912-1.78-0.0912
		c-1.1646,0-2.3696,0.1211-3.5889,0.3594C7.0142,12.9824,6,14.2188,6,15.6396v0.6904c-0.0752-0.0078-0.1504-0.0166-0.2251-0.0244
		c-0.4839-0.0518-0.9365-0.2852-1.2607-0.6416C4.2798,15.3945,4,14.9404,4,14.3096V10.6904z"></path>
</svg>
